<?xml version="1.0" standalone="no"?>
<!DOCTYPE svg PUBLIC "-//W3C//DTD SVG 20010904//EN" "http://www.w3.org/TR/2001/REC-SVG-20010904/DTD/svg10.dtd">
<!-- Created using Krita: https://krita.org -->
<svg xmlns="http://www.w3.org/2000/svg" 
    xmlns:xlink="http://www.w3.org/1999/xlink"
    xmlns:krita="http://krita.org/namespaces/svg/krita"
    xmlns:sodipodi="http://sodipodi.sourceforge.net/DTD/sodipodi-0.dtd"
    width="866.88pt"
    height="230.4pt"
    viewBox="0 0 866.88 230.4">
<defs/>
<path id="shape03" transform="matrix(1.01216858718881 0 0 1.01216858718881 168.316414859479 30.4604472486909)" fill="#8c8c8c" stroke="#8c8c8c" stroke-width="4.32" stroke-linecap="round" stroke-linejoin="round" d="M0 35.4877L51.2135 0L51.2135 131.956L0 167.444Z" sodipodi:nodetypes="ccccc"/><path id="shape031" transform="matrix(1.01216861792789 0 0 1.01216861792789 47.9324165440891 30.459221439722)" fill="#8c8c8c" stroke="#8c8c8c" stroke-width="4.32" stroke-linecap="round" stroke-linejoin="round" d="M0 35.4877L51.2135 0L51.2135 131.956L0 167.444Z" sodipodi:nodetypes="ccccc"/><path id="shape0" transform="matrix(-1.01216867735256 0 0 1.01216867735256 160.025924856945 30.459213994689)" fill="#ffffff" stroke="#ffffff" stroke-width="4.26" stroke-linecap="round" stroke-linejoin="round" d="M0 35.4877L51.2135 0L51.2135 131.956L0 167.444Z" sodipodi:nodetypes="ccccc"/><path id="shape01" transform="matrix(-1.01216868320226 0 0 1.01216868320226 280.34511126136 30.4592135049405)" fill="#ffffff" stroke="#ffffff" stroke-width="4.26" stroke-linecap="round" stroke-linejoin="round" d="M0 35.4877L51.2135 0L51.2135 131.956L0 167.444Z" sodipodi:nodetypes="ccccc"/><text id="shape01" krita:useRichText="true" krita:textVersion="2" transform="matrix(0.99999992312776 0 0 0.99999992312776 315.488473162447 160.515425729994)" fill="#8c8c8c" stroke-opacity="0" stroke="#000000" stroke-width="0" stroke-linecap="square" stroke-linejoin="bevel" font-family="Comfortaa" font-size="150" font-size-adjust="0.491228" font-stretch="normal" font-weight="600" kerning="0" letter-spacing="0" text-anchor="middle" word-spacing="0"><tspan x="256.25">mapzy</tspan></text><text id="shape02" krita:useRichText="true" krita:textVersion="2" transform="matrix(0.999999971203408 0 0 0.999999971203408 310.488475906515 155.51543610269)" fill="#ffffff" stroke="none" stroke-width="0" stroke-linecap="square" stroke-linejoin="bevel" font-family="Comfortaa" font-size="150" font-size-adjust="0.491228" font-stretch="normal" font-weight="600" kerning="0" letter-spacing="0" text-anchor="middle" word-spacing="0"><tspan x="256.25">mapzy</tspan></text>
</svg>
